<?xml version="1.0" standalone="no"?>
<!DOCTYPE svg PUBLIC "-//W3C//DTD SVG 20010904//EN"
 "http://www.w3.org/TR/2001/REC-SVG-20010904/DTD/svg10.dtd">
<svg version="1.0" xmlns="http://www.w3.org/2000/svg"
 width="3155.000000pt" height="757.000000pt" viewBox="0 0 3155.000000 757.000000"
 preserveAspectRatio="xMidYMid meet">

<g transform="translate(0.000000,757.000000) scale(0.100000,-0.100000)"
fill="#000000" stroke="none">
<path d="M1223 7195 l-36 -36 5 -77 c6 -89 43 -194 115 -325 25 -45 59 -107
76 -137 66 -122 106 -186 125 -203 72 -65 140 88 129 288 -9 166 -63 308 -162
428 -58 70 -107 97 -176 97 -34 0 -47 -6 -76 -35z m136 -50 c69 -35 158 -180
191 -311 23 -89 27 -271 7 -317 -12 -28 -13 -28 -28 -10 -22 24 -145 247 -196
353 -67 140 -92 257 -61 288 16 16 53 15 87 -3z"/>
<path d="M715 6988 c-41 -14 -75 -46 -92 -87 -30 -71 31 -199 143 -300 115
-104 343 -244 463 -286 196 -69 225 -37 131 146 -64 126 -134 224 -234 327
-166 172 -302 238 -411 200z m161 -88 c32 -16 91 -57 131 -90 104 -89 323
-383 323 -435 0 -26 -47 -14 -158 41 -207 101 -409 261 -462 363 -35 70 -31
117 13 136 49 22 88 18 153 -15z"/>
<path d="M671 6391 c-64 -22 -119 -75 -130 -122 -31 -141 166 -267 423 -270
139 -1 243 29 280 83 31 44 21 64 -66 132 -206 162 -379 223 -507 177z m174
-67 c95 -24 335 -169 335 -201 0 -8 -21 -23 -46 -35 -42 -18 -61 -20 -178 -16
-154 6 -232 29 -302 91 -52 46 -60 91 -21 128 52 50 113 59 212 33z"/>
<path d="M1719 6062 c-61 -39 -91 -78 -127 -164 -79 -189 -107 -346 -99 -542
18 -433 285 -816 743 -1067 41 -23 74 -44 74 -48 0 -5 -18 -68 -39 -142 -132
-448 -191 -852 -191 -1299 1 -516 82 -914 253 -1240 199 -379 490 -579 869
-597 330 -16 638 123 846 381 140 172 224 354 283 607 32 139 33 409 1 526
-51 190 -138 315 -260 375 -59 30 -77 33 -168 36 -98 4 -104 3 -177 -31 -84
-39 -144 -94 -177 -163 -59 -121 44 -137 177 -27 86 71 123 86 190 81 138 -12
227 -153 253 -400 16 -159 -2 -303 -62 -483 -32 -97 -102 -243 -147 -309 -79
-114 -219 -229 -350 -288 -103 -47 -156 -59 -297 -65 -116 -5 -139 -3 -200 16
-90 28 -165 81 -237 167 -339 402 -370 1497 -74 2603 l34 125 259 2 c273 1
384 14 565 63 455 125 789 432 872 800 36 159 15 342 -55 474 -75 141 -230
258 -400 305 -80 21 -115 25 -248 26 -254 1 -407 -47 -638 -201 -268 -178
-563 -571 -743 -988 -23 -55 -47 -105 -52 -112 -11 -15 -108 30 -227 106 -115
74 -280 240 -342 346 -92 155 -135 328 -125 502 7 121 46 203 152 323 50 56
82 103 95 138 25 66 25 87 0 127 -43 70 -152 87 -231 37z m2405 -543 c167 -62
250 -268 200 -492 -75 -331 -386 -587 -824 -678 -109 -22 -421 -41 -522 -31
l-67 7 53 130 c281 690 651 1084 1018 1085 64 0 102 -5 142 -21z"/>
<path d="M15674 5871 c-104 -47 -219 -199 -284 -373 -43 -116 -61 -236 -62
-398 -1 -138 2 -167 26 -259 35 -136 55 -185 112 -283 52 -90 194 -242 296
-316 129 -95 374 -204 531 -237 32 -6 33 -16 12 -118 -49 -242 -69 -537 -54
-812 8 -165 18 -231 59 -402 86 -354 280 -616 525 -708 184 -69 388 -70 580
-2 202 71 378 237 521 492 l39 70 3 -75 c2 -41 -4 -165 -12 -275 -9 -110 -19
-231 -22 -270 -3 -38 -12 -124 -20 -190 -87 -695 -270 -1107 -559 -1258 -115
-60 -280 -82 -386 -51 -137 41 -237 114 -312 227 -63 94 -80 155 -81 288 -1
116 -1 116 38 193 74 145 209 245 407 302 116 32 214 71 230 90 6 8 12 32 13
53 3 143 -270 164 -507 39 -259 -137 -404 -450 -358 -769 44 -300 225 -511
506 -589 154 -43 426 -20 610 51 203 77 321 166 479 359 239 292 390 788 461
1518 26 257 73 1201 62 1242 -8 33 -37 49 -122 71 -81 22 -256 25 -316 7 -62
-18 -67 -29 -74 -168 -14 -248 -146 -634 -291 -850 -181 -271 -431 -392 -660
-322 -47 15 -73 30 -121 75 -138 127 -213 398 -213 773 0 274 50 661 117 900
l14 52 82 7 c307 24 512 64 723 140 295 107 573 304 737 522 67 88 134 213
167 308 62 179 47 399 -36 541 -72 122 -221 219 -399 258 -112 25 -372 19
-496 -12 -102 -25 -257 -89 -352 -146 -148 -88 -338 -266 -468 -439 -155 -206
-320 -537 -406 -814 -24 -80 -31 -93 -50 -93 -12 0 -73 16 -136 35 -331 100
-567 281 -657 505 -50 121 -65 204 -64 340 2 223 34 300 194 475 118 128 140
163 140 217 0 88 -72 122 -166 79z m2561 -353 c64 -33 98 -69 129 -138 71
-157 43 -373 -76 -575 -103 -175 -291 -337 -527 -455 -86 -43 -272 -103 -411
-133 -132 -29 -407 -64 -417 -53 -9 8 54 195 109 325 216 513 483 862 763
1000 104 51 152 61 270 58 96 -3 116 -6 160 -29z"/>
<path d="M12045 5681 c-88 -18 -147 -49 -265 -140 -63 -49 -151 -150 -221
-256 -67 -100 -202 -369 -244 -485 -14 -41 -33 -91 -40 -110 -8 -19 -32 -93
-53 -165 -38 -125 -56 -189 -86 -312 -8 -32 -19 -76 -24 -98 -10 -38 -28 -135
-57 -295 -7 -41 -20 -129 -29 -195 -9 -66 -21 -151 -27 -190 -5 -38 -14 -135
-19 -215 -19 -270 -37 -349 -145 -635 -189 -501 -313 -736 -418 -792 -87 -45
-122 101 -106 442 12 255 38 489 93 840 42 271 41 253 20 276 -30 33 -69 49
-161 65 -89 16 -190 9 -247 -18 -37 -16 -46 -52 -87 -338 -9 -66 -26 -131 -74
-290 -8 -25 -20 -67 -29 -95 -84 -283 -251 -737 -328 -890 -106 -212 -185
-275 -230 -185 -21 41 -24 202 -8 380 6 58 14 152 20 210 28 304 39 481 39
625 1 460 -108 693 -341 734 -122 21 -217 -29 -335 -175 -108 -133 -234 -385
-325 -649 -39 -112 -39 -111 -48 -95 -4 8 -3 98 2 200 13 226 -1 473 -33 600
-56 222 -166 333 -329 334 -138 0 -233 -82 -403 -351 -38 -60 -157 -310 -203
-425 -22 -54 -43 -98 -47 -98 -4 0 -7 143 -7 318 0 174 1 325 0 334 -2 87
-347 122 -425 44 -21 -21 -22 -33 -28 -256 -7 -262 -8 -266 -95 -500 -228
-616 -422 -1022 -545 -1142 -32 -31 -47 -38 -71 -36 -50 5 -61 41 -60 188 1
221 62 564 209 1175 95 397 93 386 71 420 -35 53 -181 105 -301 107 -127 3
-132 -1 -160 -127 -7 -33 -29 -130 -50 -215 -20 -85 -50 -220 -66 -300 -32
-155 -57 -236 -121 -394 -157 -384 -320 -567 -447 -502 -63 33 -91 132 -91
319 0 373 143 910 299 1124 30 41 94 83 126 83 33 0 73 -30 84 -62 8 -25 7
-50 -5 -103 -9 -38 -18 -93 -21 -122 -5 -46 -2 -54 20 -77 55 -55 141 -23 183
68 61 130 8 304 -115 380 -82 51 -128 61 -271 61 -143 0 -150 -2 -270 -59
-165 -79 -322 -291 -399 -541 -51 -165 -63 -245 -68 -450 -4 -166 -2 -204 17
-303 37 -199 90 -317 186 -421 77 -83 151 -116 264 -116 47 0 105 6 130 14
119 38 259 154 326 270 58 99 80 110 69 34 -4 -21 1 -102 9 -180 22 -207 55
-301 134 -385 63 -68 126 -98 218 -105 66 -5 79 -3 131 22 171 83 364 386 555
870 32 83 68 170 79 195 l19 45 -5 -65 c-11 -154 -17 -758 -7 -777 20 -36 113
-58 247 -58 96 0 127 4 157 18 20 10 39 25 42 33 8 20 14 148 21 408 6 205 8
225 34 305 61 186 204 546 301 756 121 264 253 420 277 328 6 -28 -11 -453
-27 -653 -5 -58 -14 -170 -20 -250 -6 -80 -16 -199 -21 -265 -5 -66 -12 -193
-16 -282 l-6 -163 31 -28 c44 -41 92 -53 232 -58 107 -5 130 -3 160 13 38 20
36 13 160 413 225 723 396 1090 507 1090 40 0 46 -36 39 -225 -4 -94 -11 -198
-16 -232 -11 -67 -33 -301 -51 -533 -14 -178 -6 -485 16 -600 53 -290 173
-434 373 -448 129 -9 209 42 315 201 56 84 148 258 173 330 8 22 18 45 22 51
16 20 152 407 152 430 0 9 4 16 9 16 5 0 12 -37 16 -83 28 -353 115 -554 277
-639 64 -33 203 -33 272 1 159 79 322 346 501 825 23 61 30 46 39 -79 14 -190
46 -365 98 -540 89 -300 234 -455 423 -455 146 0 352 193 502 470 90 165 119
222 169 333 30 67 69 155 85 194 17 40 34 73 39 73 4 0 10 -24 14 -52 23 -179
96 -361 184 -459 198 -220 535 -146 731 161 28 43 55 81 59 84 5 3 12 -63 15
-147 3 -84 14 -186 23 -227 48 -216 161 -334 329 -347 70 -5 79 -4 139 26 175
86 376 409 572 916 89 232 234 670 234 710 0 12 -6 27 -12 32 -23 18 -83 24
-101 11 -9 -7 -30 -56 -46 -108 -27 -86 -70 -209 -106 -300 -313 -804 -497
-1129 -602 -1062 -38 24 -48 137 -28 313 30 268 95 602 195 1014 94 386 98
411 80 446 -30 56 -181 110 -313 112 -75 1 -90 -2 -106 -18 -17 -18 -36 -84
-96 -340 -21 -88 -72 -324 -80 -370 -22 -127 -156 -451 -248 -600 -70 -114
-111 -161 -170 -195 -114 -65 -182 -22 -212 135 -56 293 73 934 249 1232 79
133 179 178 236 106 24 -31 25 -65 5 -144 -9 -33 -16 -85 -17 -116 -1 -47 2
-59 21 -74 56 -46 144 -9 182 76 28 61 26 185 -5 250 -59 128 -190 195 -381
195 -113 -1 -160 -11 -260 -60 -132 -63 -235 -171 -327 -340 -34 -62 -79 -185
-128 -350 -24 -79 -139 -375 -185 -476 -247 -539 -411 -794 -544 -845 -28 -11
-63 8 -82 43 -52 97 -84 445 -76 833 6 328 23 619 42 738 12 78 20 98 62 160
26 40 53 81 60 92 6 11 41 67 76 125 36 58 77 128 92 155 15 28 31 55 35 60 9
12 64 115 158 295 67 129 216 446 246 527 136 361 185 555 186 731 0 136 -34
222 -112 285 -34 27 -46 31 -115 33 -43 1 -96 -1 -118 -5z m157 -181 c57 -44
54 -164 -7 -375 -35 -122 -109 -332 -144 -410 -5 -11 -33 -74 -62 -140 -52
-121 -75 -172 -144 -320 -20 -44 -57 -125 -83 -180 -103 -225 -211 -430 -217
-413 -6 15 12 148 35 258 5 25 16 79 24 120 30 148 97 456 111 505 7 28 21 77
29 110 77 292 143 491 212 630 65 133 110 196 155 218 44 22 61 21 91 -3z"/>
<path d="M10279 4204 c-63 -19 -141 -91 -176 -162 -23 -46 -28 -70 -28 -128 0
-96 35 -156 115 -196 95 -48 191 -31 280 49 153 138 141 352 -24 429 -58 27
-100 29 -167 8z"/>
<path d="M22673 3914 c-38 -9 -111 -82 -138 -140 -31 -66 -55 -169 -55 -242 0
-68 25 -187 51 -249 27 -61 89 -142 129 -168 28 -18 30 -24 25 -55 -10 -54
-38 -135 -120 -345 -29 -74 -150 -323 -187 -384 -231 -383 -446 -570 -657
-571 -135 0 -232 108 -282 316 -36 146 -31 551 7 588 8 8 36 18 62 22 111 16
268 86 372 167 134 104 216 219 261 362 28 92 24 226 -10 296 -74 154 -252
229 -473 201 -155 -19 -264 -71 -379 -179 -154 -146 -254 -337 -319 -613 -22
-92 -133 -437 -203 -630 -173 -474 -312 -728 -393 -718 -50 5 -66 57 -71 233
-9 279 38 727 138 1329 l23 139 -31 28 c-38 33 -79 46 -193 61 -95 12 -183 0
-220 -30 -22 -19 -39 -87 -66 -268 -21 -149 -149 -533 -281 -849 -129 -306
-221 -445 -294 -445 -68 0 -94 130 -86 425 5 185 10 248 38 515 20 191 62 502
88 650 19 113 16 138 -21 162 -76 50 -316 71 -385 35 -44 -23 -49 -36 -68
-163 -8 -60 -18 -116 -20 -124 -2 -8 -14 -103 -27 -210 -19 -167 -22 -244 -22
-540 0 -315 2 -355 22 -460 66 -343 185 -498 389 -508 65 -4 77 -1 133 29 135
72 293 309 415 622 21 53 42 97 45 97 4 0 10 -87 13 -192 9 -314 53 -493 156
-630 76 -102 206 -149 317 -114 163 51 364 375 535 860 30 85 49 116 49 77 0
-79 85 -325 151 -438 47 -80 180 -211 254 -250 145 -76 325 -95 472 -48 314
99 602 440 836 990 50 117 149 399 159 450 2 13 11 19 23 18 11 -2 54 -8 95
-14 67 -10 146 -7 206 7 31 8 34 -12 13 -106 -19 -88 -58 -323 -79 -470 -30
-214 -30 -577 -1 -690 48 -181 73 -232 151 -311 44 -45 68 -60 122 -77 92 -30
191 -30 250 0 63 33 171 147 239 251 63 97 197 361 247 487 71 178 92 230 125
320 40 106 107 307 161 480 l36 115 161 -2 c88 -1 163 -3 165 -5 2 -2 0 -26
-5 -54 -105 -611 -116 -710 -108 -1009 7 -279 36 -412 120 -540 70 -108 171
-165 293 -165 82 0 135 25 207 96 129 128 309 459 437 804 17 47 38 101 45
120 8 19 17 45 20 58 10 36 22 26 30 -25 19 -134 78 -306 144 -418 175 -301
504 -414 816 -280 121 52 282 189 399 340 185 237 368 607 483 973 35 112 40
122 58 116 11 -5 90 -8 175 -9 129 -1 155 -3 154 -15 -1 -8 -13 -78 -28 -155
-40 -215 -45 -242 -61 -361 -31 -233 -40 -425 -27 -566 35 -379 159 -557 403
-575 87 -7 149 14 216 72 123 108 280 369 408 680 18 44 40 96 48 115 18 40
14 47 42 -88 54 -265 189 -479 350 -557 56 -27 68 -30 175 -30 104 0 120 2
170 27 128 62 225 172 320 363 61 123 129 314 154 431 6 28 11 31 71 43 108
22 180 63 270 154 44 45 100 111 123 147 57 85 158 292 173 354 12 47 11 50
-11 68 -13 10 -38 18 -60 18 -38 0 -38 0 -66 -72 -109 -290 -264 -480 -433
-533 -23 -7 -24 -6 -18 31 49 290 26 423 -79 474 -56 28 -101 21 -150 -22 -63
-56 -94 -142 -94 -264 0 -130 39 -228 115 -291 37 -31 37 -31 24 -74 -65 -237
-145 -427 -220 -527 -101 -134 -230 -149 -302 -35 -117 186 -122 689 -11 1133
48 196 104 320 179 398 48 49 54 52 101 52 42 0 55 -5 78 -29 24 -25 28 -37
33 -122 7 -115 21 -146 67 -155 67 -12 122 44 133 133 12 110 -44 206 -158
268 l-74 40 -140 0 c-164 0 -221 -16 -338 -92 -129 -83 -228 -204 -299 -368
-42 -95 -59 -151 -92 -306 -14 -64 -30 -127 -35 -140 -6 -13 -38 -94 -71 -179
-33 -85 -65 -164 -70 -175 -5 -11 -18 -40 -28 -65 -166 -384 -295 -598 -374
-616 -33 -7 -63 20 -77 73 -30 106 -3 430 70 858 117 681 118 698 53 763 l-35
35 -77 -5 c-54 -4 -114 -18 -199 -47 -67 -23 -154 -48 -193 -56 -82 -17 -211
-20 -226 -5 -7 7 -6 30 3 73 7 34 16 123 19 197 11 214 -19 330 -99 394 -33
26 -47 31 -95 31 -77 0 -133 -38 -178 -119 -110 -200 -74 -493 82 -652 30 -31
54 -64 54 -75 0 -10 -11 -51 -24 -91 -116 -354 -307 -723 -481 -933 -173 -208
-376 -315 -523 -276 -95 26 -173 125 -214 274 -38 138 -35 604 5 629 6 4 32
10 57 14 236 34 490 217 592 426 48 98 63 159 62 248 -2 153 -79 267 -219 325
-65 27 -80 29 -195 29 -181 0 -290 -35 -417 -136 -174 -138 -297 -356 -369
-653 -23 -98 -82 -273 -150 -452 -13 -35 -36 -93 -50 -130 -171 -449 -336
-768 -429 -829 -30 -20 -68 -5 -84 34 -23 54 -28 182 -15 365 7 98 15 186 18
195 3 9 10 53 16 97 17 135 34 245 85 535 70 404 74 444 51 510 -7 19 -28 45
-46 58 -51 34 -118 30 -274 -19 -72 -23 -165 -50 -206 -60 -89 -22 -228 -26
-236 -6 -2 7 2 62 11 122 33 239 9 436 -64 519 -25 28 -86 56 -123 56 -41 0
-106 -30 -135 -61 -74 -81 -121 -269 -102 -405 20 -147 74 -254 171 -337 l53
-45 -23 -69 c-96 -286 -291 -780 -392 -991 -178 -370 -292 -487 -351 -359 -15
35 -19 66 -19 179 0 182 33 446 115 903 70 392 77 458 51 519 -23 54 -59 76
-130 76 -33 0 -81 -6 -106 -14 -297 -95 -340 -106 -443 -106 -56 0 -79 4 -83
14 -3 7 2 56 10 109 19 118 20 322 2 398 -16 71 -41 114 -88 152 -36 29 -94
42 -145 31z m-788 -384 c30 -51 28 -209 -4 -300 -61 -174 -194 -315 -358 -379
-63 -25 -62 -29 -28 105 100 388 230 622 340 612 21 -2 34 -12 50 -38z m4819
7 c29 -39 35 -177 12 -266 -35 -135 -131 -276 -243 -352 -64 -44 -170 -90
-176 -76 -4 12 49 229 73 297 63 178 113 286 163 349 67 85 130 103 171 48z"/>
<path d="M30665 1428 c-44 -16 -55 -27 -55 -57 0 -39 108 -211 194 -309 45
-51 144 -121 190 -133 103 -28 220 0 250 60 23 45 20 118 -7 169 -95 177 -411
326 -572 270z m199 -78 c99 -34 179 -82 248 -150 49 -50 68 -76 73 -103 12
-64 1 -84 -56 -101 -28 -9 -64 -13 -82 -9 -85 16 -175 91 -282 235 -70 94 -85
125 -68 141 13 14 112 6 167 -13z"/>
<path d="M30401 1267 c-21 -27 -23 -80 -6 -196 22 -149 64 -291 126 -421 83
-175 168 -263 267 -279 63 -10 101 2 140 42 63 65 55 180 -25 343 -50 100
-172 270 -272 376 -110 118 -200 170 -230 135z m116 -119 c56 -47 180 -197
256 -310 82 -122 122 -222 122 -301 0 -52 -3 -62 -28 -83 -32 -28 -58 -25
-122 11 -49 28 -89 78 -142 175 -58 106 -136 357 -149 478 -8 74 3 80 63 30z"/>
<path d="M30155 1179 c-51 -54 -105 -162 -130 -256 -52 -198 -10 -454 89 -540
42 -38 74 -48 118 -39 78 16 108 79 114 241 4 101 0 158 -29 358 -22 152 -41
246 -51 262 -26 39 -57 32 -111 -26z m73 -109 c7 -30 21 -134 33 -230 40 -326
8 -477 -87 -415 -32 21 -60 67 -81 135 -26 83 -23 262 5 363 33 115 94 231
112 210 4 -5 12 -33 18 -63z"/>
</g>
</svg>
