<svg height="423pt" viewBox="0 -1 423.26881 423" width="423pt" xmlns="http://www.w3.org/2000/svg"><path d="m220.027344 20.804688 24.308594 73.699218c4.0625 12.328125 15.722656 20.675782 28.878906 20.675782h78.65625c29.414062 0 41.648437 37.085937 17.847656 54.117187l-63.632812 45.550781c-10.644532 7.617188-15.097657 21.121094-11.03125 33.445313l24.304687 73.699219c9.089844 27.5625-22.929687 50.484374-46.730469 33.449218l-63.632812-45.546875c-10.640625-7.617187-25.054688-7.617187-35.699219 0l-63.632813 45.546875c-23.796874 17.035156-55.820312-5.882812-46.730468-33.449218l24.308594-73.699219c4.0625-12.324219-.386719-25.828125-11.03125-33.445313l-63.636719-45.550781c-23.796875-17.03125-11.566407-54.117187 17.851562-54.117187h78.65625c13.152344 0 24.8125-8.347657 28.878907-20.675782l24.308593-73.699218c9.089844-27.5625 48.667969-27.5625 57.757813 0zm0 0" fill="#00e7ff" fill-rule="evenodd"/><path d="m416.410156 175.351562v23.648438c.308594 9.113281-3.535156 18.453125-12.558594 24.910156l-63.632812 45.546875c-10.644531 7.617188-15.097656 21.121094-11.03125 33.449219l24.304688 60.046875c9.089843 27.5625-22.929688 64.136719-46.730469 47.101563l-63.632813-45.546876c-10.640625-7.621093-25.054687-7.621093-35.699218 0l-63.632813 45.546876c-23.796875 17.035156-55.820313-19.539063-46.730469-47.101563l24.308594-60.046875c4.066406-12.328125-.386719-25.832031-11.03125-33.449219l-63.632812-45.546875c-9.175782-6.566406-12.996094-16.113281-12.539063-25.367187v-27.742188" fill="#ffe600"/><path d="m319.9375 421.222656c-6.035156 0-11.90625-1.863281-17.144531-5.617187l-63.632813-45.550781c-8.300781-5.933594-19.453125-5.9375-27.753906 0l-63.636719 45.550781c-11.285156 8.082031-25.492187 7.402343-38-1.792969-14.304687-10.519531-25.890625-32.667969-19.183593-53l24.460937-60.464844c2.984375-9.089844-.441406-19.445312-8.675781-25.339844l-63.632813-45.550781c-10.390625-7.429687-16-18.824219-15.386719-31.25l-.007812-27.410156c0-3.769531 3.058594-6.824219 6.828125-6.824219s6.824219 3.054688 6.824219 6.824219v27.746094c-.230469 4.859375.730468 13.40625 9.6875 19.8125l63.632812 45.546875c13.121094 9.390625 18.5625 25.925781 13.542969 41.140625l-24.464844 60.464843c-4.363281 13.28125 3.882813 29.519532 14.464844 37.300782 4.480469 3.296875 13.292969 7.902344 21.964844 1.691406l63.632812-45.550781c13.054688-9.351563 30.59375-9.347657 43.648438 0l63.632812 45.550781c8.664063 6.199219 17.484375 1.601562 21.964844-1.691406 10.582031-7.78125 18.828125-24.019532 14.308594-37.726563l-24.148438-59.617187c-5.179687-15.636719.261719-32.171875 13.382813-41.5625l63.632812-45.546875c6.519532-4.671875 9.96875-11.464844 9.707032-19.128907v-23.882812c0-3.769531 3.054687-6.824219 6.824218-6.824219 3.769532 0 6.828125 3.054688 6.828125 6.824219v23.652344c.40625 11.96875-5.210937 23.15625-15.414062 30.457031l-63.632813 45.550781c-8.234375 5.894532-11.660156 16.246094-8.519531 25.757813l24.148437 59.625c6.863282 20.753906-4.722656 42.902343-19.027343 53.421875-6.703125 4.933594-13.890625 7.414062-20.855469 7.414062zm0 0" fill="#602f75"/><path d="m365.226562 142.484375h20.777344c29.414063 0 41.648438 37.085937 17.847656 54.121094l-63.632812 45.546875c-10.644531 7.617187-15.097656 21.121094-11.03125 33.449218l24.304688 73.699219c9.089843 27.5625-22.929688 50.484375-46.730469 33.449219l-63.632813-45.546875c-10.640625-7.621094-25.054687-7.621094-35.699218 0l-63.632813 45.546875c-23.796875 17.035156-55.820313-5.886719-46.730469-33.449219l24.308594-73.699219c4.066406-12.328124-.386719-25.832031-11.03125-33.449218l-63.632812-45.546875c-23.800782-17.035157-11.570313-54.121094 17.847656-54.121094h78.65625c13.152344 0 24.8125-8.34375 28.878906-20.671875l24.304688-73.699219c9.089843-27.5625 48.671874-27.5625 57.761718 0l24.308594 73.699219c4.066406 12.328125 15.722656 20.671875 28.878906 20.671875h18.558594" fill="#fff"/><path d="m324.617188 395.433594c-7.589844 0-15.179688-2.375-21.824219-7.136719l-63.632813-45.546875c-8.300781-5.933594-19.453125-5.941406-27.753906 0l-63.636719 45.546875c-13.429687 9.621094-30.722656 9.511719-44.042969-.289063-13.011718-9.566406-18.167968-25.605468-13.140624-40.847656l24.304687-73.695312c3.140625-9.515625-.285156-19.867188-8.519531-25.765625l-63.632813-45.546875c-13.214843-9.457032-18.566406-25.492188-13.636719-40.851563 5-15.578125 18.921876-25.644531 35.457032-25.644531h78.65625c10.242187 0 19.246094-6.425781 22.394531-15.984375l24.308594-73.695313c5.082031-15.40625 18.960937-25.363281 35.363281-25.363281s30.285156 9.957031 35.363281 25.363281l24.308594 73.695313c3.148437 9.5625 12.152344 15.984375 22.394531 15.984375h18.558594c3.773438 0 6.828125 3.054688 6.828125 6.824219s-3.054687 6.828125-6.828125 6.828125h-18.558594c-16.148437 0-30.363281-10.195313-35.363281-25.363282l-24.304687-73.695312c-3.886719-11.78125-14.117188-15.980469-22.398438-15.980469s-18.511719 4.199219-22.394531 15.980469l-24.308594 73.699219c-5 15.171875-19.214844 25.363281-35.363281 25.363281h-78.65625c-12.730469 0-19.949219 8.351562-22.457032 16.167969-2.449218 7.640625-1.484374 18.367187 8.582032 25.574219l63.632812 45.546874c13.121094 9.390626 18.5625 25.921876 13.542969 41.140626l-24.308594 73.691406c-3.816406 11.570312 1.765625 20.800781 8.265625 25.574218 6.742188 4.957032 17.636719 7.609376 28.007813.191407l63.632812-45.550781c13.054688-9.351563 30.59375-9.347657 43.648438 0l63.632812 45.550781c10.367188 7.414062 21.269531 4.765625 28.007813-.191407 6.5-4.777343 12.082031-14.003906 8.265625-25.574218l-24.308594-73.695313c-5.019531-15.214843.421875-31.746093 13.542969-41.136719l63.632812-45.546874c10.066406-7.207032 11.035156-17.9375 8.582032-25.578126-2.511719-7.816406-9.726563-16.167968-22.457032-16.167968h-20.777344c-3.769531 0-6.824218-3.054688-6.824218-6.824219s3.054687-6.828125 6.824218-6.828125h20.777344c16.535156 0 30.457032 10.066406 35.457032 25.644531 4.929687 15.363281-.421876 31.394531-13.636719 40.851563l-63.632813 45.546875c-8.234375 5.898437-11.660156 16.25-8.519531 25.761719l24.304687 73.699218c5.027344 15.246094-.128906 31.28125-13.140624 40.847656-6.726563 4.949219-14.472657 7.425782-22.21875 7.425782zm0 0" fill="#602f75"/><path d="m197.953125 212.699219c.011719-.308594.019531-.625.019531-.9375 0-11.308594-9.167968-20.480469-20.480468-20.480469-11.308594 0-20.480469 9.171875-20.480469 20.480469" fill="#fff"/><path d="m197.960938 219.527344c-.101563 0-.195313 0-.296876-.003906-3.765624-.160157-6.691406-3.34375-6.53125-7.109376l.015626-.652343c0-7.53125-6.125-13.652344-13.652344-13.652344-7.53125 0-13.65625 6.121094-13.65625 13.652344 0 3.769531-3.054688 6.828125-6.824219 6.828125s-6.828125-3.058594-6.828125-6.828125c0-15.054688 12.25-27.304688 27.308594-27.304688 15.054687 0 27.304687 12.25 27.304687 27.304688l-.027343 1.230469c-.15625 3.667968-3.179688 6.535156-6.8125 6.535156zm0 0" fill="#602f75"/><path d="m286.699219 212.699219c.011719-.308594.019531-.625.019531-.9375 0-11.308594-9.167969-20.480469-20.480469-20.480469-11.308593 0-20.480469 9.171875-20.480469 20.480469" fill="#fff"/><path d="m286.707031 219.527344c-.101562 0-.195312 0-.296875-.003906-3.765625-.160157-6.691406-3.34375-6.527344-7.109376l.011719-.652343c0-7.53125-6.125-13.652344-13.652343-13.652344-7.53125 0-13.652344 6.121094-13.652344 13.652344 0 3.769531-3.058594 6.828125-6.828125 6.828125s-6.828125-3.058594-6.828125-6.828125c0-15.054688 12.25-27.304688 27.308594-27.304688 15.054687 0 27.304687 12.25 27.304687 27.304688l-.027344 1.230469c-.15625 3.667968-3.179687 6.535156-6.8125 6.535156zm0 0" fill="#602f75"/><g fill="#ea3457"><path d="m184.320312 245.894531c0 22.621094 18.339844 40.960938 40.960938 40.960938s40.960938-18.339844 40.960938-40.960938zm0 0" fill-rule="evenodd"/><path d="m225.28125 293.683594c-26.347656 0-47.785156-21.4375-47.785156-47.789063 0-3.769531 3.054687-6.824219 6.824218-6.824219h81.921876c3.769531 0 6.824218 3.054688 6.824218 6.824219 0 26.351563-21.4375 47.789063-47.785156 47.789063zm-33.445312-40.960938c3.167968 15.558594 16.960937 27.304688 33.445312 27.304688s30.277344-11.746094 33.449219-27.304688zm0 0"/></g></svg>