<svg id="SvgjsSvg1001" width="288" height="288" xmlns="http://www.w3.org/2000/svg" version="1.1" xmlns:xlink="http://www.w3.org/1999/xlink" xmlns:svgjs="http://svgjs.com/svgjs"><defs id="SvgjsDefs1002"></defs><g id="SvgjsG1008" transform="matrix(1,0,0,1,0,0)"><svg xmlns="http://www.w3.org/2000/svg" width="288" height="288" version="1.0" viewBox="0 0 2990 885"><g transform="matrix(.1 0 0 -.1 0 885)" fill="#ffffff" class="color000 svgShape"><path d="M7165 7376c-46-21-118-87-142-130-9-17-15-18-63-6-63 15-164 8-235-16-133-46-259-156-367-319-223-339-369-753-623-1772l-63-252-147-243c-330-544-778-1259-785-1251-3 4-15 43-24 87-10 43-76 283-147 533-70 250-133 480-139 511l-11 57 106 260c286 697 432 1160 481 1525 51 387-50 600-286 600-209 0-426-123-557-316-84-124-164-320-209-510-108-467-86-1209 52-1790l27-112-115-223c-636-1240-1426-2098-2052-2230-132-28-351-35-446-15-258 55-414 250-428 537-10 221 57 407 208 572 141 154 314 231 542 243 130 7 181 24 218 75 52 72 48 159-10 214-27 26-39 30-103 33-221 11-504-116-674-302-91-99-153-189-208-301-154-313-164-618-29-895 87-177 256-314 454-367 95-26 377-23 515 6 313 65 605 249 965 610 426 427 805 965 1198 1701 29 54 53 88 55 80 11-37 240-979 258-1062l20-92-32-63c-26-51-33-79-37-144-6-100 12-152 73-208 108-99 252-64 325 79 55 108 82 342 61 534l-10 99 150 251c162 271 633 1035 636 1032 1-1-13-87-32-191-73-413-126-1086-111-1405 42-868 256-1379 660-1573 114-55 182-74 321-87 333-31 638 76 842 294 99 106 123 163 87 214-11 16-25 22-51 22-38 0-47-8-167-144-158-180-423-277-636-232-134 28-242 101-336 226-83 111-158 329-198 575-54 326-48 890 14 1480 51 474 165 1150 291 1718l39 178 142 202c132 187 300 443 374 567l30 52 23-84c30-112 116-286 191-387 112-152 291-308 465-405l83-47-28-62c-44-99-155-401-195-532-156-517-229-977-228-1435 1-250 14-393 53-580 71-337 187-569 375-748 132-126 268-198 448-238 105-24 337-24 447-1 270 58 450 158 661 367 145 144 225 257 318 450 111 230 159 415 168 645 9 238-43 417-154 532-79 81-164 113-296 113-161 0-329-98-396-229-35-69-24-101 36-101 43 0 77 18 179 91 94 68 148 90 201 82 97-15 166-81 207-198 24-68 32-268 16-388-62-452-350-877-706-1038-124-56-243-82-384-83-194 0-279 32-390 150-104 112-168 262-212 500-19 103-22 155-22 399-1 281 5 359 45 635 65 447 208 984 378 1420l41 105 267 0c170 0 297 5 348 13 369 59 597 141 835 299 400 267 618 683 544 1041-49 238-209 395-474 464-70 18-113 22-245 22-172 1-262-14-418-71-437-156-887-610-1237-1246l-74-135-41 20c-381 195-595 488-612 838-13 261 25 366 197 545 121 127 160 190 160 263 0 24-8 54-17 69-37 56-142 70-228 29zm-225-282c0-3-16-49-35-100-35-94-68-218-79-304-5-31-40-108-112-240-97-178-275-482-295-504-5-5 5 42 22 105 16 63 59 229 94 369 108 428 139 518 206 594 39 45 119 86 167 86 17 0 32-3 32-6zm-2174-299c135-88 75-572-156-1250-85-249-234-655-241-655-19 0-42 485-34 735 21 704 126 1120 300 1183 39 15 99 8 131-13zm4962-19c67-24 129-83 165-155 27-56 32-77 35-163 5-117-13-205-63-315-156-339-522-584-1002-668-132-24-364-38-490-30l-112 7 71 141c335 670 757 1112 1138 1193 78 16 198 12 258-10zM11762 7150c-80-40-220-187-281-293-133-235-188-465-178-741 6-168 27-259 91-393 104-215 261-366 511-489 116-58 321-134 359-134 12 0 10-16-10-87-96-340-143-588-162-858-12-175 3-484 32-616 104-486 377-739 801-739 370 0 709 218 963 619 38 61 52 77 48 56-3-16-17-106-31-200-104-694-250-1229-432-1575-78-150-136-233-227-328-162-169-326-242-541-242-144 0-268 53-363 154-97 104-142 219-142 361 0 188 89 352 255 470 87 62 166 97 345 151 85 25 167 52 182 60 39 20 58 53 58 100 0 35-6 47-35 72-42 37-84 47-190 46-141-1-327-70-456-170-341-262-457-770-258-1122 38-66 142-173 214-220 103-67 295-109 450-97 374 28 650 151 901 400 213 212 366 464 509 839 148 392 246 829 379 1691 42 270 79 507 82 527 10 61-1 85-54 112-26 13-82 29-125 36-104 17-279 9-330-16-43-21-47-33-71-194-20-140-81-314-189-543-227-480-533-747-856-747-106 0-178 27-247 91-63 60-95 119-128 231-98 338-35 884 175 1536l50 152 77 0c91 0 302 23 422 45 495 93 911 303 1211 611 234 241 359 502 359 749 0 172-40 277-146 383-74 74-182 129-309 159-111 25-375 25-495 0-222-47-448-150-638-290-185-137-436-404-580-618-129-192-269-452-358-664-20-49-38-91-39-92-2-4-203 56-266 80-249 94-432 244-523 428-65 132-79 208-72 394 5 150 23 252 60 340 26 61 89 138 233 286 138 142 169 189 158 240-19 85-86 102-193 49zm2783-375c63-30 98-68 134-145 23-49 26-67 26-165-1-86-6-126-23-184-72-231-229-437-470-617-100-74-334-195-470-242-207-72-455-122-683-138l-101-7 7 24c3 13 51 114 105 224 302 612 643 1029 982 1199 133 66 219 87 341 82 80-3 108-9 152-31zM2433 6801c-45-21-68-50-83-102-22-75 48-200 187-336 68-66 442-371 496-403 33-20 73-25 94-12 70 44 21 295-97 492-49 84-151 194-239 259-143 106-271 143-358 102zm218-113c66-33 102-60 174-133 99-98 155-183 205-308 33-82 57-183 46-194-11-11-46 13-226 158-199 160-290 246-359 339-60 81-70 116-41 153 34 42 96 38 201-15zM1970 6286c-135-36-202-149-155-261 19-47 103-126 173-163 117-62 241-99 432-131 239-41 336-47 450-31 96 14 140 36 140 70 0 58-231 253-430 362-248 136-470 192-610 154zm313-117c173-59 447-216 562-321l50-46-28-11c-85-33-535 24-705 89-228 87-332 206-246 281 75 65 193 67 367 8zM2317 5608c-129-13-245-89-293-192-41-88-29-142 45-209 107-97 343-99 581-5 83 32 182 100 225 153 32 38 39 55 39 92 1 59-20 75-144 108-172 46-337 65-453 53zm191-88c97-11 219-33 280-52 44-13 42-39-7-86-113-109-392-187-551-153-101 22-152 73-136 137 10 39 82 111 130 129 85 33 153 39 284 25zM19225 4992c-117-55-211-244-222-446-9-166 32-291 130-402 59-66 61-49-30-249-139-307-338-637-513-850-71-86-227-238-296-288-99-71-241-127-324-127-141 0-237 101-276 290-30 150-6 480 49 670l12 43 110 27c136 34 173 48 283 105 481 249 650 818 292 979-155 70-374 58-569-31-248-113-483-415-605-777-121-356-475-1098-637-1336-69-101-73-106-122-147-162-140-164 175-3 907 36 168 124 519 177 713 58 213 60 238 19 267-53 38-126 53-255 54-143 1-185-10-208-57-21-41-49-134-82-272-55-226-384-923-578-1227-117-181-218-245-256-161-53 115 13 630 159 1238 5 22 26 108 45 190 20 83 52 205 71 272 19 68 34 132 34 143 0 58-107 100-271 108-134 6-211-13-234-58-8-16-37-116-64-222-207-813-245-1453-104-1745 62-127 175-203 304-203 194 0 409 229 651 695 85 165 86 165 67-5-15-137-12-411 6-513 46-263 156-390 340-391 57-1 80 4 125 26 177 87 368 354 617 863 51 105 92 183 93 175 3-99 30-259 62-360 98-310 331-500 616-500 113 0 207 23 331 81 333 157 668 555 964 1149 51 102 113 236 137 298l45 113 35-8c19-4 106-8 193-8 86 0 157-2 157-5 0-3-18-63-40-135-90-290-163-599-196-831-24-165-24-423 0-528 48-217 168-331 361-343 83-6 88-5 158 30 211 104 492 520 792 1172 82 178 259 582 278 636 5 14 13 15 59 7 29-6 110-8 181-5 70 2 127 1 127-3 0-5-20-75-44-157-80-266-140-520-182-768-35-202-44-506-20-644 18-105 65-217 115-273 18-21 63-52 99-70 54-27 81-34 145-37 71-3 84 0 142 28 184 91 425 436 700 1005l92 189 12-119c18-167 52-291 112-414 88-178 219-289 400-339 367-102 791 157 1167 714 149 222 330 561 422 792l45 113 35-8c19-4 106-7 193-7 123 0 157-2 157-13 0-7-22-86-49-175-97-318-163-608-192-842-13-110-13-363 1-436 34-181 107-291 230-347 73-34 234-38 290-8 185 98 411 402 655 878l50 98 8-88c10-112 48-281 83-368 114-287 345-402 608-303 238 89 463 406 639 902 5 12 17 17 46 17 50 0 152 37 228 81 92 54 237 206 332 348 95 142 184 313 179 344-4 27-70 62-101 53-16-5-36-35-71-108-118-242-288-451-426-523-48-24-116-46-123-39-3 3 9 53 25 112 33 122 47 283 29 347-15 55-68 105-119 112-101 14-192-68-241-218-56-168-26-347 73-438 14-14 26-31 26-38 0-22-94-252-143-350-95-187-219-344-302-379-77-32-153-8-202 64-53 79-74 306-49 527 70 624 324 1225 517 1225 95 0 123-45 113-182-10-134 14-170 101-154 64 12 125 111 125 204 0 52-32 132-71 176-96 108-320 142-530 80-302-90-549-393-675-828-35-122-232-516-427-856-206-358-354-502-407-395-27 56-14 249 31 460 38 177 53 236 176 685 68 250 129 491 135 536 10 73 9 85-8 120-27 55-53 66-149 61-59-3-113-15-208-46-70-23-151-49-180-57-69-19-307-31-307-15 0 6 9 44 20 84 77 270 80 530 8 622-26 33-91 64-136 65-104 0-214-111-270-275-76-219-37-457 96-595l48-50-31-77c-126-311-346-691-546-943-76-97-239-258-315-313-99-71-241-127-324-127-141 0-237 101-276 290-20 101-15 358 10 485 30 155 49 227 60 230 6 2 45 11 86 20 368 84 663 327 758 625 80 253-34 454-285 501-125 24-312-5-452-68-252-115-474-402-606-783-74-214-397-886-565-1175-141-245-270-405-324-405-94 0-87 233 20 692 39 167 115 460 251 958 36 136 44 176 40 227-11 148-97 168-362 83-189-61-284-80-401-80l-102 0 24 75c59 185 82 451 49 563-27 91-87 142-168 142-95 0-180-68-242-193-46-93-64-161-71-272-12-186 53-348 178-440l26-20-86-190c-113-249-343-712-444-895-180-323-347-540-417-540-22 0-35 7-48 27-24 36-23 209 1 348 25 141 131 574 216 875 98 349 120 445 120 519 0 59-2 65-35 98l-35 35-83-4c-59-4-118-17-212-48-186-60-284-80-397-80-54 0-98 4-98 9 0 5 7 27 15 50 40 114 68 286 69 422 1 132 0 137-29 194-16 32-42 67-57 78-39 29-130 34-183 9zm-898-386c24-21 28-32 31-94 15-257-185-547-457-663-85-37-95-37-87-1 28 119 189 484 263 594 69 104 161 186 210 188 7 0 24-11 40-24zm5310 0c24-21 28-32 31-94 12-210-123-454-327-590-83-56-205-111-218-99-11 12 79 253 167 442 93 201 229 362 307 365 7 0 24-11 40-24zM28290 2845c-119-33-210-97-210-147 0-33 34-71 132-145 129-99 290-194 373-222 90-29 199-38 262-21 105 29 194 110 208 190 19 107-93 233-267 300-134 52-390 75-498 45zm333-96c29-6 88-22 132-37 68-23 89-36 143-87 54-53 62-65 62-98 0-31-7-44-37-72-72-66-162-80-279-44-159 48-473 250-449 288 11 18 88 51 144 61 53 10 209 4 284-11zM27895 2468c-24-18-27-26-22-61 6-42 75-193 135-292 146-244 392-496 558-572 69-31 181-42 238-23 87 28 145 118 132 203-22 145-179 331-406 481-249 165-363 224-516 266-91 25-85 25-119-2zm210-125c104-41 370-202 480-290 147-118 258-272 257-356-2-117-156-129-318-25-137 88-387 385-503 598-63 117-52 127 84 73zM27653 2308c-92-101-116-391-52-628 48-179 182-386 285-442 56-30 120-44 159-34 42 11 104 73 112 114 29 147-29 307-279 770-84 156-118 208-142 223-40 25-58 24-83-3zm93-170c85-145 264-509 289-588 36-115 44-204 20-230-23-25-86-27-122-3-112 74-219 263-264 468-28 128-10 415 27 415 7 0 30-28 50-62z" fill="#ffffff" class="color000 svgShape"></path></g></svg></g></svg>