<?xml version="1.0" standalone="no"?>
<!DOCTYPE svg PUBLIC "-//W3C//DTD SVG 20010904//EN"
 "http://www.w3.org/TR/2001/REC-SVG-20010904/DTD/svg10.dtd">
<svg version="1.0" xmlns="http://www.w3.org/2000/svg"
 width="1568.000000pt" height="886.000000pt" viewBox="0 0 1568.000000 886.000000"
 preserveAspectRatio="xMidYMid meet">

<g transform="translate(0.000000,886.000000) scale(0.100000,-0.100000)"
fill="#000000" stroke="none">
<path d="M4863 8525 c-17 -7 -36 -22 -41 -32 -11 -20 -12 -24 -216 -798 -270
-1026 -352 -1314 -522 -1825 l-84 -255 -217 0 c-193 -1 -227 -3 -297 -23 -133
-37 -268 -105 -338 -170 -35 -32 -40 -95 -9 -112 33 -17 57 -12 145 34 132 67
200 81 396 80 91 -1 184 -5 207 -10 l42 -9 -80 -209 c-114 -302 -224 -556
-364 -841 -482 -977 -976 -1427 -1504 -1367 -165 19 -298 83 -390 189 -60 68
-127 210 -147 313 -33 167 -4 407 69 572 86 193 270 382 437 448 127 50 242
35 455 -61 214 -95 277 -89 339 36 34 68 37 135 8 175 -93 125 -413 162 -722
84 -488 -124 -840 -634 -817 -1184 7 -154 31 -253 93 -380 82 -166 237 -298
419 -356 147 -47 352 -49 555 -8 530 109 1045 637 1488 1524 147 294 317 690
408 948 10 28 24 52 31 52 8 0 71 -12 141 -27 111 -24 149 -27 307 -27 140 0
191 4 230 17 27 9 50 15 51 14 1 -1 16 -123 33 -272 105 -877 247 -1524 437
-1983 235 -569 565 -828 949 -747 257 54 445 226 505 461 46 179 6 293 -99
281 -90 -10 -124 -62 -152 -237 -22 -139 -38 -182 -81 -228 -33 -34 -120 -72
-165 -72 -76 0 -162 56 -224 146 -100 146 -213 448 -299 799 -197 806 -347
1956 -525 4013 -64 740 -82 909 -103 944 -30 52 -196 119 -291 118 -14 -1 -40
-7 -58 -15z m-64 -1340 c6 -77 25 -347 41 -600 32 -481 53 -763 71 -929 8 -78
8 -101 -2 -107 -29 -17 -189 -31 -299 -26 -95 4 -316 33 -328 43 -2 1 31 107
73 236 121 371 303 1032 391 1426 16 70 31 117 35 109 4 -7 12 -76 18 -152z"/>
<path d="M7488 8395 c-226 -75 -447 -321 -629 -700 -234 -491 -389 -1110 -464
-1858 -34 -328 -30 -896 6 -1197 38 -311 124 -631 224 -831 80 -158 218 -319
328 -383 155 -91 344 -108 508 -47 337 127 665 662 740 1211 18 133 16 364 -4
476 -58 319 -233 534 -507 623 -184 61 -344 44 -460 -48 -64 -51 -86 -78 -119
-146 -55 -115 -49 -228 15 -285 19 -16 44 -31 54 -31 11 -1 26 -2 33 -3 20 -3
46 13 58 36 6 12 17 74 24 139 20 179 46 214 155 214 64 0 71 -2 103 -33 73
-71 102 -221 101 -527 -1 -379 -54 -723 -161 -1050 -73 -225 -153 -335 -240
-335 -75 1 -179 87 -224 186 -59 130 -92 285 -109 514 -19 256 -12 462 32
1013 l22 277 85 115 c145 192 348 540 531 905 226 452 372 862 414 1168 27
193 18 303 -33 417 -38 83 -81 129 -157 166 -55 27 -77 32 -157 36 -78 3 -103
0 -169 -22z m214 -185 c193 -54 146 -475 -131 -1168 -157 -393 -399 -887 -526
-1075 l-36 -52 6 40 c115 850 229 1424 360 1813 84 249 159 384 240 434 35 21
38 21 87 8z"/>
<path d="M13230 7797 c-84 -20 -117 -41 -124 -79 -3 -18 -35 -233 -71 -478
-36 -245 -67 -451 -70 -459 -5 -11 -33 -13 -158 -8 -235 9 -376 52 -482 149
-95 87 -145 223 -145 398 0 82 -3 99 -19 114 -49 45 -148 40 -199 -11 -25 -25
-25 -27 -19 -142 12 -238 60 -367 180 -485 145 -144 326 -199 659 -200 l166
-1 -4 -25 c-22 -128 -96 -897 -114 -1190 -12 -197 -11 -191 -155 -625 -218
-654 -381 -1029 -506 -1158 -37 -39 -52 -48 -74 -45 -43 5 -64 44 -80 143 -28
169 -12 458 54 1000 19 157 73 515 101 678 27 154 26 170 -10 201 -64 53 -262
88 -384 67 -88 -15 -112 -30 -126 -79 -11 -43 -45 -238 -55 -322 -12 -94 -157
-527 -284 -843 -186 -467 -336 -682 -420 -598 -11 11 -28 46 -38 78 -16 50
-18 97 -18 343 0 158 6 343 14 415 29 291 43 416 81 700 17 127 40 269 56 352
18 91 14 108 -35 143 -49 34 -119 51 -246 57 -140 7 -225 -11 -246 -49 -14
-26 -28 -107 -59 -328 -25 -180 -36 -219 -100 -357 -123 -263 -295 -447 -437
-470 -39 -7 -38 -10 -17 107 8 47 15 138 15 202 1 107 -2 122 -27 178 -72 162
-248 153 -332 -15 -24 -48 -52 -169 -52 -222 0 -60 28 -173 55 -229 14 -28 48
-74 76 -102 l50 -50 -17 -69 c-30 -120 -104 -325 -154 -428 -94 -190 -195
-295 -286 -295 -152 0 -229 139 -261 473 -16 157 -16 183 0 380 43 547 186
989 348 1072 60 32 146 10 173 -43 7 -15 16 -70 20 -122 11 -151 26 -180 96
-180 84 0 134 70 135 190 0 85 -20 137 -79 206 -115 134 -405 168 -636 75
-222 -91 -405 -310 -504 -605 -91 -273 -118 -588 -76 -878 82 -557 348 -870
699 -820 100 14 176 48 258 114 178 145 319 423 430 848 8 32 12 35 56 42 166
23 308 117 434 287 31 42 60 80 64 85 4 4 5 -66 2 -155 -6 -161 7 -401 29
-549 48 -332 152 -535 316 -615 45 -23 74 -29 142 -33 117 -6 175 20 277 124
134 136 240 322 379 664 41 99 50 106 45 35 -4 -62 20 -403 33 -485 35 -203
84 -332 166 -435 40 -51 66 -71 122 -100 63 -31 80 -35 147 -35 63 0 87 5 131
27 179 89 370 407 573 953 36 96 75 209 88 250 l23 75 7 -65 c4 -36 12 -141
19 -233 36 -531 165 -867 373 -974 41 -21 70 -27 138 -31 109 -5 149 11 244
99 148 138 317 459 457 869 123 362 308 1061 287 1086 -6 7 -30 19 -52 25 -74
20 -74 19 -151 -251 -152 -539 -344 -1087 -463 -1324 -116 -230 -205 -307
-255 -220 -42 71 -71 370 -63 630 3 76 7 216 10 309 10 312 53 871 116 1500
47 477 65 634 71 641 15 14 800 148 1082 184 473 61 793 44 1039 -55 16 -7 18
0 15 91 l-3 98 -60 18 c-156 47 -217 53 -515 53 -363 0 -499 -17 -1259 -156
-150 -27 -276 -48 -278 -45 -6 5 16 215 57 554 17 133 30 260 30 281 0 47 -29
76 -96 97 -67 21 -255 27 -324 11z"/>
<path d="M8837 3020 c-195 -49 -408 -351 -626 -889 l-79 -195 5 420 c4 306 3
425 -5 441 -21 38 -113 65 -243 71 -131 5 -199 -6 -244 -42 l-29 -23 -22 -644
c-13 -354 -28 -837 -34 -1074 l-12 -429 26 -23 c39 -33 117 -53 236 -60 131
-7 221 12 261 55 l26 29 7 350 7 351 88 243 c157 434 323 818 428 992 99 162
177 217 195 137 14 -60 -6 -461 -57 -1140 -13 -179 -30 -418 -36 -533 l-12
-208 23 -24 c57 -61 290 -102 419 -74 86 18 94 30 157 227 329 1045 474 1402
617 1520 46 38 76 38 94 2 21 -42 15 -258 -17 -571 -62 -616 -73 -848 -49
-1114 23 -265 97 -467 209 -568 77 -69 148 -98 258 -105 116 -7 157 11 252
108 146 150 317 497 466 949 41 124 39 124 65 6 16 -78 74 -245 106 -309 150
-300 396 -466 691 -466 151 0 335 66 477 173 353 262 705 877 891 1555 29 105
26 115 -35 133 -74 22 -82 16 -117 -101 -97 -318 -227 -615 -390 -890 -198
-332 -414 -542 -615 -595 -214 -57 -362 41 -433 288 -44 152 -58 377 -36 602
16 163 5 148 130 179 217 53 373 139 507 277 119 124 189 252 219 402 15 76
15 98 5 160 -40 230 -218 361 -489 360 -333 -3 -599 -189 -774 -543 -77 -156
-114 -273 -154 -485 -27 -144 -190 -643 -321 -980 -19 -49 -70 -163 -114 -252
-107 -222 -181 -298 -241 -250 -32 25 -43 87 -41 242 1 150 5 195 44 590 13
137 22 320 26 525 5 294 4 324 -17 445 -53 310 -156 459 -349 505 -174 41
-323 -44 -473 -269 -113 -171 -244 -455 -349 -756 l-38 -110 7 170 c13 303 8
588 -12 709 -43 266 -127 418 -263 479 -65 29 -159 41 -216 27z m3450 -258
c60 -91 33 -327 -57 -485 -77 -136 -177 -227 -326 -298 -45 -22 -85 -39 -88
-39 -13 0 -5 55 25 168 64 247 157 477 236 584 80 109 164 137 210 70z"/>
<path d="M4220 2506 c-407 -119 -1007 -345 -1310 -493 -127 -63 -165 -86 -212
-133 -63 -64 -78 -105 -58 -165 16 -47 77 -92 138 -101 64 -10 231 12 366 47
332 87 688 285 1115 618 171 134 201 163 201 201 0 38 -32 70 -67 69 -16 0
-93 -20 -173 -43z m-211 -243 c-34 -41 -303 -204 -499 -302 -223 -111 -322
-149 -482 -181 -94 -20 -228 -27 -228 -12 0 52 334 204 940 428 226 84 297
101 269 67z"/>
<path d="M4478 2318 c-105 -60 -647 -490 -918 -728 -418 -366 -580 -548 -580
-650 0 -45 47 -90 94 -90 121 0 545 230 801 435 180 143 412 400 552 610 89
134 194 331 200 373 10 80 -57 103 -149 50z m-179 -363 c-62 -125 -370 -449
-565 -596 -172 -130 -474 -312 -490 -296 -15 14 22 59 160 195 168 165 555
497 763 656 67 50 145 98 151 91 2 -2 -6 -24 -19 -50z"/>
<path d="M4750 2023 c-181 -122 -486 -507 -678 -858 -99 -181 -115 -228 -116
-347 -1 -97 -1 -98 32 -130 45 -46 94 -44 193 6 280 142 534 520 709 1052 70
213 58 306 -41 311 -36 2 -54 -4 -99 -34z m24 -201 c7 -22 -129 -345 -201
-477 -69 -127 -151 -248 -225 -332 -70 -81 -184 -172 -220 -175 -21 -3 -23 0
-21 40 3 70 103 261 259 497 116 175 360 465 391 465 7 0 14 -8 17 -18z"/>
</g>
</svg>
