<?xml version="1.0" standalone="no"?>
<!DOCTYPE svg PUBLIC "-//W3C//DTD SVG 20010904//EN"
 "http://www.w3.org/TR/2001/REC-SVG-20010904/DTD/svg10.dtd">
<svg version="1.0" xmlns="http://www.w3.org/2000/svg"
 width="1337.000000pt" height="802.000000pt" viewBox="0 0 1337.000000 802.000000"
 preserveAspectRatio="xMidYMid meet">

<g transform="translate(0.000000,802.000000) scale(0.100000,-0.100000)"
fill="#000000" stroke="none">
<path d="M3682 7083 c-63 -22 -158 -116 -213 -209 -42 -72 -99 -199 -99 -221
0 -5 -51 -21 -112 -36 -751 -175 -912 -224 -1183 -357 -428 -211 -645 -522
-662 -950 -6 -161 5 -248 51 -383 122 -358 428 -587 786 -587 113 0 181 13
280 55 126 53 218 120 261 189 24 39 29 56 24 82 -8 44 -48 91 -84 99 -41 9
-80 -10 -211 -105 -153 -110 -196 -130 -285 -130 -167 0 -332 67 -444 179 -73
73 -108 129 -145 231 -50 139 -58 340 -21 510 19 83 85 232 136 307 45 65 159
175 244 235 130 93 334 183 579 258 117 35 746 184 752 177 1 -1 -3 -45 -7
-97 -5 -52 -13 -545 -18 -1095 -12 -1270 -29 -1603 -107 -2105 -138 -897 -445
-1417 -917 -1554 -301 -87 -582 -27 -767 164 -229 238 -238 584 -21 801 132
132 291 193 575 223 199 21 259 56 260 149 0 87 -126 147 -309 147 -232 0
-414 -71 -573 -224 -124 -119 -207 -263 -253 -441 -33 -127 -33 -350 0 -474
81 -303 275 -496 574 -571 150 -37 405 -29 615 21 540 126 942 495 1191 1093
146 351 250 832 295 1361 43 507 43 999 0 1924 -13 294 -23 535 -22 537 11 10
178 77 247 98 187 59 355 69 521 30 135 -31 292 -136 381 -254 308 -411 251
-1234 -126 -1800 -109 -163 -293 -343 -415 -405 -30 -16 -43 -17 -110 -7 -201
30 -267 24 -328 -33 -34 -31 -36 -37 -40 -103 -5 -82 10 -134 45 -162 53 -41
188 -18 340 59 34 17 74 31 88 31 85 0 349 -153 446 -258 184 -198 267 -467
238 -769 -22 -234 -107 -471 -242 -675 -95 -143 -267 -292 -396 -344 -193 -78
-420 -41 -535 87 -79 88 -111 216 -82 330 38 148 118 252 262 340 46 29 100
69 120 91 30 34 35 45 32 81 -4 56 -29 69 -128 64 -62 -3 -87 -10 -140 -37
-71 -38 -185 -145 -237 -223 -41 -62 -91 -182 -103 -248 -23 -119 -1 -279 51
-380 82 -162 246 -292 434 -344 90 -25 308 -31 420 -12 273 48 485 150 691
334 190 169 337 412 406 674 20 73 23 109 22 269 0 171 -2 192 -27 275 -77
259 -254 487 -495 642 -92 59 -274 143 -406 187 l-127 42 73 23 c99 32 275
117 373 181 349 229 579 564 666 971 33 151 33 439 0 586 -20 94 -54 198 -96
298 -26 62 -131 222 -188 290 -241 283 -594 435 -1012 435 -210 0 -433 -40
-578 -104 l-55 -25 -4 38 c-3 38 -3 38 53 60 228 88 237 354 15 457 -60 28
-156 31 -224 7z"/>
<path d="M7290 6811 c-260 -83 -474 -315 -679 -734 -129 -265 -232 -555 -320
-904 -92 -363 -168 -830 -203 -1253 -17 -207 -17 -844 0 -1010 55 -511 157
-835 319 -1010 88 -95 167 -134 273 -134 66 -1 84 4 150 35 207 99 443 435
670 954 61 139 70 152 70 103 0 -59 47 -278 79 -369 67 -188 145 -311 258
-403 200 -166 473 -146 671 47 148 144 287 425 368 740 15 56 28 103 29 105 2
2 33 7 70 13 115 16 203 65 309 171 51 51 104 109 119 128 l26 35 1 -47 c0
-67 35 -259 65 -362 78 -270 218 -472 383 -553 66 -33 85 -38 166 -41 156 -7
267 29 383 126 66 55 151 173 202 282 l31 65 0 -90 c0 -90 -14 -394 -26 -556
l-6 -86 -71 -54 c-97 -72 -291 -268 -389 -393 -212 -267 -383 -582 -457 -841
-78 -273 -58 -463 61 -570 71 -64 127 -80 273 -79 139 1 232 26 345 91 81 47
230 194 293 290 210 319 355 777 447 1422 l31 215 78 105 c259 352 515 809
664 1186 62 157 117 328 117 362 0 31 -40 55 -85 51 l-37 -3 -47 -130 c-135
-367 -327 -745 -565 -1110 -106 -162 -103 -164 -87 54 14 186 38 818 45 1206
4 165 9 360 12 432 l6 133 -34 34 c-26 26 -49 37 -105 50 -134 30 -348 15
-392 -28 -16 -17 -16 -24 -40 -576 -11 -257 -34 -412 -97 -668 -75 -305 -174
-519 -277 -595 -79 -59 -162 -57 -210 6 -60 79 -116 280 -138 500 -17 179 -7
636 19 802 38 240 107 421 181 471 66 44 139 25 177 -48 8 -16 24 -77 35 -136
29 -151 56 -192 126 -192 46 0 75 16 103 57 22 32 25 47 24 117 0 98 -29 167
-104 249 -84 92 -193 137 -330 137 -388 -1 -664 -305 -751 -830 -17 -103 -30
-151 -57 -205 -113 -229 -274 -394 -409 -421 -40 -8 -40 -4 -17 132 10 59 15
133 12 202 -3 97 -6 114 -33 166 -72 140 -229 139 -311 0 -59 -101 -78 -250
-48 -373 23 -92 55 -151 114 -209 l51 -50 -25 -89 c-109 -386 -257 -649 -392
-693 -100 -33 -192 28 -244 160 -48 126 -64 245 -64 485 -1 405 70 793 194
1062 72 154 139 223 217 223 101 0 124 -32 134 -180 7 -109 24 -162 54 -174
56 -21 127 14 160 79 28 56 26 163 -4 226 -37 77 -86 126 -166 164 -119 58
-265 67 -433 29 -76 -18 -98 -27 -187 -78 -220 -128 -376 -377 -461 -733 -36
-151 -169 -474 -325 -785 -176 -351 -317 -559 -428 -630 -82 -51 -122 -32
-159 77 -78 230 -95 1007 -37 1674 l17 185 83 125 c260 393 602 1043 764 1450
77 193 153 427 186 576 35 153 40 356 13 446 -25 80 -82 154 -142 184 -43 21
-63 25 -140 24 -58 0 -111 -6 -146 -18z m240 -209 c120 -120 -57 -674 -542
-1697 -121 -254 -257 -524 -257 -511 -1 5 15 97 34 205 161 912 378 1671 546
1912 81 115 161 148 219 91z m3136 -4874 c-12 -149 -56 -430 -92 -593 -110
-499 -285 -783 -493 -802 -110 -10 -147 41 -138 187 22 333 399 1037 670 1252
27 21 51 38 54 38 3 0 3 -37 -1 -82z"/>
</g>
</svg>
