<?xml version="1.0" standalone="no"?>
<!DOCTYPE svg PUBLIC "-//W3C//DTD SVG 20010904//EN"
 "http://www.w3.org/TR/2001/REC-SVG-20010904/DTD/svg10.dtd">
<svg version="1.0" xmlns="http://www.w3.org/2000/svg"
 width="1178.000000pt" height="622.000000pt" viewBox="0 0 1178.000000 622.000000"
 preserveAspectRatio="xMidYMid meet">

<g transform="translate(0.000000,622.000000) scale(0.100000,-0.100000)"
fill="#000000" stroke="none">
<path d="M4760 6213 c-33 -12 -70 -57 -70 -86 0 -35 35 -71 123 -124 278 -168
321 -250 232 -441 -54 -116 -137 -183 -277 -223 -76 -22 -101 -24 -298 -24
-118 1 -258 7 -310 14 -52 7 -210 28 -350 47 -140 19 -410 59 -600 89 -370 58
-895 133 -1130 162 -102 12 -215 18 -380 18 -207 0 -248 -3 -345 -24 -164 -34
-287 -76 -415 -142 -140 -71 -224 -134 -323 -239 -127 -135 -195 -259 -244
-449 -22 -86 -24 -111 -20 -236 4 -123 8 -152 35 -235 82 -250 267 -440 511
-525 215 -75 514 -66 638 19 82 56 93 155 23 191 -49 25 -115 35 -282 40 -110
4 -190 12 -246 25 -308 73 -512 328 -488 611 22 263 169 467 431 595 332 162
724 175 1480 48 50 -8 114 -19 143 -25 l52 -10 0 -412 c0 -2139 -163 -3517
-495 -4202 -205 -423 -480 -593 -794 -493 -81 26 -100 36 -172 92 -111 87
-199 235 -251 426 -20 76 -23 106 -22 285 0 183 3 208 27 298 63 237 208 455
351 530 70 36 217 35 400 -2 82 -17 172 -31 200 -31 100 0 148 58 150 182 1
61 -2 69 -29 99 -47 49 -107 71 -211 77 -193 10 -457 -68 -633 -187 -33 -23
-91 -71 -127 -108 -153 -154 -239 -315 -302 -563 -25 -98 -27 -119 -26 -310 1
-196 2 -210 32 -322 76 -290 234 -503 448 -605 l79 -38 237 -3 c219 -3 243 -1
310 19 512 151 901 702 1116 1579 192 782 270 1681 260 3005 -2 322 -1 585 4
585 4 0 97 -16 206 -35 550 -96 573 -99 867 -99 241 -1 280 2 365 21 198 45
327 110 441 223 87 86 127 152 165 268 23 72 26 95 22 180 -3 88 -7 105 -42
177 -30 61 -57 98 -115 156 -100 100 -177 139 -270 138 -36 0 -73 -3 -81 -6z"/>
<path d="M7415 5461 c-470 -137 -885 -932 -1099 -2106 -45 -250 -89 -615 -112
-935 -6 -83 -15 -118 -74 -280 -256 -699 -500 -1207 -639 -1333 -31 -28 -50
-37 -76 -37 -46 0 -62 26 -73 120 -24 198 54 675 233 1425 119 498 121 510 81
550 -90 90 -402 150 -479 92 -16 -12 -45 -122 -136 -522 -21 -93 -44 -201 -51
-240 -37 -214 -195 -605 -323 -803 -97 -150 -186 -222 -276 -224 -44 -1 -56 3
-81 27 -114 109 -113 521 1 1003 88 367 222 660 337 734 55 35 109 34 148 -3
36 -34 40 -79 14 -188 -12 -55 -20 -117 -18 -146 3 -44 7 -52 38 -73 66 -45
151 -7 197 88 24 48 27 67 27 145 0 80 -3 97 -32 156 -71 149 -227 228 -447
229 -196 0 -362 -76 -516 -236 -216 -225 -349 -624 -349 -1045 0 -463 153
-812 400 -911 67 -26 217 -31 295 -9 135 38 280 157 392 322 37 55 69 99 73
99 3 0 7 -60 7 -132 2 -216 38 -401 100 -508 105 -184 320 -261 484 -174 134
71 291 276 446 579 62 121 183 405 244 570 l44 119 7 -89 c27 -331 51 -496
103 -700 69 -271 184 -474 314 -554 287 -176 563 40 896 704 64 126 155 332
215 483 l105 264 8 -602 c5 -332 12 -613 17 -626 19 -50 134 -84 283 -84 105
0 201 21 233 51 21 19 21 29 28 481 l8 462 28 75 c26 72 85 213 145 346 55
122 189 383 255 495 158 268 285 392 354 346 31 -20 40 -73 27 -157 -43 -268
-251 -588 -483 -742 l-77 -51 -15 -65 c-30 -128 -38 -223 -31 -345 33 -562
369 -1066 710 -1066 205 0 380 146 538 450 143 273 261 628 398 1193 18 75 36
137 39 137 7 0 261 -498 308 -605 217 -496 206 -929 -27 -1077 -86 -54 -220
-33 -310 48 -83 75 -115 199 -72 282 11 20 49 69 86 107 125 132 149 185 126
271 -22 82 -105 126 -184 98 -96 -34 -178 -145 -212 -289 -17 -72 -19 -233 -4
-307 37 -185 126 -304 277 -375 307 -144 763 53 932 402 78 160 97 319 65 546
-57 403 -227 693 -655 1117 -112 110 -180 185 -180 197 0 11 9 44 20 73 34 88
90 283 106 362 8 41 14 120 14 175 0 85 -4 108 -22 145 -28 55 -73 86 -137 95
-78 11 -128 -8 -192 -74 -187 -191 -209 -532 -61 -915 l20 -50 -25 -90 c-86
-322 -131 -483 -179 -644 -146 -483 -299 -791 -428 -859 -170 -89 -375 199
-521 732 -32 119 -55 227 -55 266 0 10 19 21 58 33 87 27 231 99 299 150 327
246 422 699 205 973 -58 73 -145 115 -253 121 -92 5 -150 -8 -229 -51 -81 -44
-124 -82 -209 -183 -118 -142 -237 -353 -414 -734 -15 -34 -16 -28 -16 157
l-1 191 99 194 c285 553 525 1168 620 1588 133 585 -5 890 -364 806 -343 -81
-593 -440 -745 -1071 -89 -366 -146 -810 -171 -1315 l-12 -245 -54 -155 c-114
-323 -259 -661 -424 -992 -196 -392 -368 -608 -483 -608 -50 0 -95 117 -123
320 -10 71 -16 242 -20 522 -5 418 3 684 32 984 l13 140 79 120 c345 517 728
1286 881 1766 77 242 96 343 96 523 1 146 -1 165 -23 220 -29 72 -100 146
-158 163 -57 17 -188 14 -258 -7z m225 -194 c107 -54 37 -414 -182 -942 -150
-361 -596 -1314 -597 -1277 -2 29 42 285 84 497 196 982 411 1607 589 1716 36
22 71 24 106 6z m1321 -374 c47 -28 61 -71 60 -186 0 -277 -137 -723 -510
-1662 -56 -140 -60 -147 -60 -105 -1 60 34 469 59 700 101 908 264 1363 451
1253z"/>
</g>
</svg>
